<svg id="Capa_1" enable-background="new 0 0 512 512" height="512" viewBox="0 0 512 512" width="512" xmlns="http://www.w3.org/2000/svg"><g><circle cx="256" cy="256" fill="#ff4e51" r="256"/><path d="m512 256c0-4.669-.133-9.307-.38-13.914l-140.904-140.905-239.535 309.638 99.978 99.978c8.176.787 16.459 1.203 24.841 1.203 141.385 0 256-114.615 256-256z" fill="#f72553"/><path d="m370.716 101.181h-54.429l-128.838 154.819 63.499 154.819h119.768z" fill="#57697d"/><path d="m131.181 101.181v309.638h119.767v-273.352l-65.339-36.286z" fill="#728192"/><path d="m334.43 137.467h-18.143l-101.624-18.143v182.184l36.285 73.025h83.482z" fill="#edeff3"/><path d="m167.467 137.467v237.066h83.481v-255.209l-65.339 18.143z" fill="#fff"/><path d="m316.287 137.467-18.143-18.143v36.286h-47.196l-9.071 9.071 9.071 9.072h65.339z" fill="#c0c8d2"/><path d="m203.752 155.61v-36.286l-18.143 18.143v36.286h65.339v-18.143z" fill="#dae0e7"/><path d="m316.287 101.181h-65.339l-36.285 18.143 36.285 18.143h65.339z" fill="#a6b0bd"/><path d="m185.609 101.181h65.339v36.286h-65.339z" fill="#c0c8d2"/><path d="m402.332 188.098-67.902 67.902-29.415-29.415-38.487 38.486 67.902 67.902 106.389-106.388z" fill="#1e8aff"/></g></svg>