<svg enable-background="new 0 0 32 32" height="512" viewBox="0 0 32 32" width="512" xmlns="http://www.w3.org/2000/svg"><g id="BG"><path d="m26 32h-20c-3.314 0-6-2.686-6-6v-20c0-3.314 2.686-6 6-6h20c3.314 0 6 2.686 6 6v20c0 3.314-2.686 6-6 6z" fill="#f5e6fe"/></g><g id="bold"><g><g><path d="m8.668 13c-.368 0-.667-.298-.667-.667v-1c0-1.103.897-2 2-2h1c.368 0 .667.298.667.667 0 .368-.299.667-.667.667h-1c-.368 0-.667.299-.667.667v1c0 .368-.298.666-.666.666z" fill="#d9a4fc"/></g><g><path d="m23.335 13c-.368 0-.667-.298-.667-.667v-1c0-.368-.299-.667-.667-.667h-1c-.368 0-.667-.298-.667-.667 0-.368.299-.667.667-.667h1c1.103 0 2 .897 2 2v1c0 .37-.298.668-.666.668z" fill="#d9a4fc"/></g><g><path d="m11.001 22.667h-1c-1.103 0-2-.897-2-2v-1c0-.369.299-.667.667-.667s.667.298.667.667v1c0 .368.299.667.667.667h1c.368 0 .667.298.667.667-.001.368-.3.666-.668.666z" fill="#d9a4fc"/></g><g><path d="m22.001 22.667h-1c-.368 0-.667-.298-.667-.667 0-.368.299-.667.667-.667h1c.368 0 .667-.299.667-.667v-1c0-.368.299-.667.667-.667s.667.298.667.667v1c-.001 1.104-.898 2.001-2.001 2.001z" fill="#d9a4fc"/></g></g><path d="m16 11.953c-2.567 0-4.753 1.613-5.32 3.927-.02.08-.02.16 0 .24.567 2.313 2.753 3.927 5.32 3.927s4.753-1.613 5.32-3.927c.02-.08.02-.16 0-.24-.566-2.313-2.753-3.927-5.32-3.927zm0 6.047c-1.1 0-2-.9-2-2s.9-2 2-2 2 .9 2 2-.9 2-2 2z" fill="#be63f9"/></g></svg>