<?xml version="1.0"?>
<svg xmlns="http://www.w3.org/2000/svg" xmlns:xlink="http://www.w3.org/1999/xlink" xmlns:svgjs="http://svgjs.com/svgjs" version="1.1" width="512" height="512" x="0" y="0" viewBox="0 0 512 512" style="enable-background:new 0 0 512 512" xml:space="preserve" class=""><g><g xmlns="http://www.w3.org/2000/svg"><path d="m362.157 194.844c0 24.814-20.186 45-45 45 43.052 0 81.064-29.106 98.584-44.971-17.578-15.879-55.723-45.029-98.584-45.029 24.815 0 45 20.185 45 45z" fill="#ffc107" data-original="#000000" style="" class=""/><circle cx="317.157" cy="194.844" r="15" fill="#ffc107" data-original="#000000" style="" class=""/><path d="m272.157 194.844c0-24.814 20.186-45 45-45-43.052 0-81.064 29.106-98.584 44.971 17.578 15.879 55.723 45.029 98.584 45.029-24.814 0-45-20.186-45-45z" fill="#ffc107" data-original="#000000" style="" class=""/><path d="m455.042 332.729c75.944-75.944 75.944-199.828 0-275.772s-199.828-75.944-275.772 0c-72.336 72.336-75.73 188.161-10.182 264.74l-21.638 21.638-10.607-10.607-136.843 136.846 42.426 42.426 136.844-136.844-10.607-10.607 21.638-21.638c76.58 65.548 192.405 62.155 264.741-10.182zm-268.985-127.987-9-9.899 9-9.901c2.401-2.701 59.099-65.099 131.1-65.099s128.699 62.399 131.1 65.099l9 9.901-9 9.899c-2.401 2.701-59.099 65.101-131.1 65.101s-128.699-62.4-131.1-65.101z" fill="#ffc107" data-original="#000000" style="" class=""/></g></g></svg>
