<?xml version="1.0"?>
<svg xmlns="http://www.w3.org/2000/svg" xmlns:xlink="http://www.w3.org/1999/xlink" xmlns:svgjs="http://svgjs.com/svgjs" version="1.1" width="512" height="512" x="0" y="0" viewBox="0 0 512 512" style="enable-background:new 0 0 512 512" xml:space="preserve" class=""><g><linearGradient xmlns="http://www.w3.org/2000/svg" id="SVGID_1_" gradientUnits="userSpaceOnUse" x1="256" x2="256" y1="512" y2="0"><stop stop-opacity="1" stop-color="#96f955" offset="0"/><stop stop-opacity="1" stop-color="#78c4fd" offset="1"/><stop stop-opacity="1" stop-color="#71ed77" offset="1"/></linearGradient><linearGradient xmlns="http://www.w3.org/2000/svg" id="SVGID_2_" gradientUnits="userSpaceOnUse" x1="256" x2="256" y1="130.944" y2="381.056"><stop stop-opacity="1" stop-color="#5558ff" offset="0"/><stop stop-opacity="1" stop-color="#46b2d9" offset="1"/></linearGradient><g xmlns="http://www.w3.org/2000/svg"><g><circle cx="256" cy="256" fill="url(#SVGID_1_)" r="256" data-original="url(#SVGID_1_)" style=""/></g><g><g><path d="m344.824 291.53h-142.118v-27.35c0-3.452-1.995-6.592-5.126-8.05-3.123-1.457-6.827-.98-9.464 1.241l-79.941 53.997c-2.012 1.691-3.175 4.181-3.175 6.809s1.162 5.118 3.175 6.81l79.941 53.997c2.639 2.203 6.307 2.704 9.464 1.24 3.131-1.457 5.126-4.597 5.126-8.049v-27.35h142.118c4.91 0 8.882-3.973 8.882-8.882v-35.529c0-4.911-3.973-8.884-8.882-8.884zm59.001-104.515-79.941-53.997c-2.637-2.221-6.341-2.698-9.464-1.24-3.131 1.457-5.126 4.597-5.126 8.049v27.35h-142.118c-4.91 0-8.882 3.973-8.882 8.882v35.53c0 4.909 3.973 8.882 8.882 8.882h142.118v27.35c0 3.452 1.995 6.592 5.126 8.049 3.156 1.464 6.824.963 9.464-1.24l79.941-53.997c2.012-1.691 3.175-4.181 3.175-6.81 0-2.627-1.162-5.116-3.175-6.808z" fill="url(#SVGID_2_)" data-original="url(#SVGID_2_)" style=""/></g></g></g></g></svg>
